<?xml version="1.0"?>
<svg width="34" height="35" xmlns="http://www.w3.org/2000/svg" xmlns:svg="http://www.w3.org/2000/svg">
 <g class="layer" display="inline">
  <title>Layer 1</title>
  <path d="m20.57,7.97l0,-3.51l-7.69,0l0,8.24l-8.24,0l0,7.14l7.67,0c2.35,0 6.85,-0.63 10.66,-5.21c-0.71,2.95 -4.1,8.82 -12,9c-0.03,0.01 -0.07,0.01 -0.1,0.01l-10.02,0l0,-14.74l8.24,0l0,-8.24l15.28,0l0,7.31l-3.8,0z" fill="#1A76D1" id="svg_1"/>
  <path d="m12.89,24.67l0,3.51l7.69,0l0,-8.24l8.24,0l0,-7.15l-7.67,0c-2.35,0 -6.85,0.64 -10.66,5.22c0.71,-2.96 4.1,-8.82 12,-9c0.03,-0.01 0.07,-0.01 0.1,-0.01l10.02,0l0,14.74l-8.24,0l0,8.24l-15.28,0l0,-7.31l3.8,0z" fill="#1A76D1" id="svg_2"/>
 </g>

</svg>